<svg width="180" height="16" viewBox="0 0 180 16" fill="none" xmlns="http://www.w3.org/2000/svg">
<path fill-rule="evenodd" clip-rule="evenodd" d="M0 4.03711L3.81849 0.218617L15.274 11.6741L11.4555 15.4926L0 4.03711Z" fill="#000A02"/>
<path fill-rule="evenodd" clip-rule="evenodd" d="M7.63658 11.6738L19.0921 0.218351L22.9106 4.03684L11.4551 15.4923L7.63658 11.6738Z" fill="#000A02"/>
<path fill-rule="evenodd" clip-rule="evenodd" d="M15.2732 4.03711L19.0917 0.218617L30.5471 11.6741L26.7286 15.4926L15.2732 4.03711Z" fill="#000A02"/>
<path fill-rule="evenodd" clip-rule="evenodd" d="M22.9137 11.6748L34.3691 0.219327L38.1876 4.03782L26.7322 15.4933L22.9137 11.6748Z" fill="#000A02"/>
<g style="mix-blend-mode:hard-light">
<path fill-rule="evenodd" clip-rule="evenodd" d="M22.9137 4.03809L26.7322 0.219594L38.1876 11.6751L34.3691 15.4936L22.9137 4.03809Z" fill="#00C000"/>
</g>
<g style="mix-blend-mode:hard-light">
<path fill-rule="evenodd" clip-rule="evenodd" d="M0 11.6738L11.4555 0.218351L15.274 4.03684L3.81849 15.4923L0 11.6738Z" fill="#00C000"/>
</g>
<g style="mix-blend-mode:hard-light">
<rect x="7.63658" y="4.03711" width="5.40016" height="16.2005" transform="rotate(-45 7.63658 4.03711)" fill="#00C000"/>
</g>
<g style="mix-blend-mode:hard-light">
<path fill-rule="evenodd" clip-rule="evenodd" d="M15.2732 11.6738L26.7286 0.218349L30.5471 4.03684L19.0917 15.4923L15.2732 11.6738Z" fill="#00C000"/>
</g>
<path fill-rule="evenodd" clip-rule="evenodd" d="M52.3017 10.1265L52.6508 12.6793H52.6945L53.0872 10.0828L56.4691 0.220703H57.5601L60.9638 10.1265L61.3566 12.6793H61.4002L61.8093 10.0828L64.4767 0.220703H66.6585L62.0111 15.7121H60.7675L57.4292 5.78451L56.971 3.49353H56.8619L56.4255 5.82815L53.0872 15.7121H51.8217L47.087 0.220703H49.3998L52.3017 10.1265Z" fill="black"/>
<path fill-rule="evenodd" clip-rule="evenodd" d="M68.9056 1.31116C68.9034 0.971929 69.037 0.64591 69.2765 0.405682C69.5519 0.127645 69.9331 -0.0192706 70.3238 0.00203295C70.7131 -0.0106032 71.091 0.135022 71.3711 0.405682C71.6299 0.636188 71.7803 0.964619 71.7857 1.31116C71.7825 1.65196 71.6311 1.9745 71.3711 2.19483C71.0846 2.4529 70.7092 2.58977 70.3238 2.57666C69.9445 2.59293 69.5747 2.45523 69.2983 2.19483C69.0493 1.96839 68.9068 1.64776 68.9056 1.31116Z" fill="black"/>
<path fill-rule="evenodd" clip-rule="evenodd" d="M69.3209 4.03906H71.3282V15.494H69.3209V4.03906H69.3209Z" fill="black"/>
<path fill-rule="evenodd" clip-rule="evenodd" d="M78.9214 10.3446H77.6777V15.4939H75.6704V0.220703H77.6777V9.25371L78.8123 8.88278L82.6306 4.039H84.987L81.3433 8.46823L80.1432 9.34098L81.5178 10.3228L85.5543 15.4939H83.0233L78.9214 10.3446Z" fill="black"/>
<path fill-rule="evenodd" clip-rule="evenodd" d="M87.9755 1.31116C87.9791 0.968751 88.1207 0.642275 88.3682 0.405679C88.6384 0.133421 89.0104 -0.0130094 89.3937 0.0020309C89.783 -0.0106052 90.1609 0.13502 90.441 0.405679C90.6998 0.636186 90.8502 0.964617 90.8556 1.31116C90.8523 1.65196 90.701 1.9745 90.441 2.19482C90.1545 2.45289 89.7791 2.58977 89.3937 2.57665C89.0144 2.59293 88.6445 2.45523 88.3682 2.19482C88.1192 1.96839 87.9767 1.64776 87.9755 1.31116H87.9755Z" fill="black"/>
<path fill-rule="evenodd" clip-rule="evenodd" d="M88.3673 4.03906H90.3746V15.494H88.3673V4.03906Z" fill="black"/>
<path fill-rule="evenodd" clip-rule="evenodd" d="M102.158 15.4941V9.21023C102.162 8.66348 102.133 8.11696 102.07 7.57382C102.029 7.16601 101.911 6.76979 101.721 6.40651C101.557 6.10247 101.301 5.85808 100.99 5.70831C100.609 5.54219 100.195 5.46389 99.7793 5.47921C99.0793 5.45556 98.3941 5.68396 97.8483 6.12287C97.3358 6.55293 96.9573 7.1208 96.7574 7.75928V15.4941H94.7501V4.03917H96.1246L96.5174 5.56649H96.7356C97.198 5.04551 97.7391 4.6001 98.3393 4.24645C99.0437 3.86133 99.8388 3.67292 100.641 3.70097C101.334 3.67679 102.019 3.85089 102.616 4.20281C103.199 4.60831 103.626 5.20111 103.827 5.88286C104.24 5.23159 104.801 4.68613 105.463 4.29008C106.145 3.89424 106.922 3.69066 107.71 3.70097C108.312 3.68751 108.912 3.76849 109.489 3.94098C109.96 4.09009 110.375 4.37931 110.678 4.7701C111.019 5.24413 111.25 5.78826 111.354 6.36287C111.515 7.19666 111.588 8.04491 111.572 8.89386V15.4941H109.565V8.90477C109.57 8.40118 109.538 7.8979 109.467 7.39927C109.418 7.02614 109.296 6.66642 109.107 6.34105C108.934 6.05974 108.679 5.83871 108.376 5.70831C107.983 5.55603 107.564 5.48549 107.143 5.50103C106.429 5.46132 105.727 5.69541 105.179 6.15559C104.646 6.69062 104.288 7.37566 104.154 8.11929V15.4941H102.147H102.158Z" fill="black"/>
<path fill-rule="evenodd" clip-rule="evenodd" d="M122.843 15.4604C123.524 15.2714 124.166 14.965 124.741 14.5549L123.978 13.0276C123.602 13.3607 123.165 13.6165 122.69 13.7803C122.133 13.9921 121.541 14.0993 120.945 14.0967C119.476 14.0967 118.436 13.7549 117.825 13.0712C117.154 12.2032 116.817 11.123 116.876 10.0275H125.058C125.102 9.73095 125.131 9.43238 125.145 9.13292V8.32562C125.176 7.52562 125.031 6.72856 124.72 5.99101C124.475 5.44095 124.1 4.95818 123.629 4.58369C123.176 4.24547 122.655 4.01084 122.101 3.8964C121.542 3.77369 120.972 3.71151 120.4 3.71094C118.61 3.71094 117.232 4.23095 116.265 5.27098C115.298 6.31102 114.814 7.81288 114.814 9.77658C114.804 10.6171 114.914 11.4547 115.141 12.2639C115.336 12.9614 115.678 13.6088 116.145 14.1622C116.616 14.7003 117.212 15.1159 117.879 15.3731C118.677 15.6729 119.525 15.8173 120.378 15.7986C121.212 15.806 122.042 15.692 122.843 15.4604ZM122.527 6.1326C123.029 6.61261 123.265 7.43446 123.236 8.59813H116.953C117.054 7.43446 117.403 6.61261 118 6.1326C118.7 5.61988 119.556 5.36544 120.422 5.41258C121.191 5.36568 121.948 5.62445 122.527 6.1326Z" fill="black"/>
<path fill-rule="evenodd" clip-rule="evenodd" d="M138.323 13.6284C138.301 12.9665 138.29 12.272 138.29 11.5447V0.220703H136.283V4.21355L135.661 4.039C135.462 3.97287 135.257 3.92182 135.05 3.88627L134.374 3.8099C134.134 3.78808 133.861 3.77717 133.556 3.77717C131.752 3.77717 130.352 4.29719 129.355 5.33722C128.359 6.37725 127.861 7.87185 127.861 9.821C127.861 11.8429 128.265 13.3411 129.072 14.3157C129.879 15.2903 131.105 15.7775 132.748 15.7775C133.536 15.8018 134.316 15.6133 135.007 15.2321C135.616 14.891 136.125 14.394 136.479 13.792H136.697L137.199 15.5375H138.53C138.413 14.9073 138.344 14.2691 138.323 13.6284ZM135.193 5.64264C135.587 5.73897 135.958 5.91332 136.284 6.15538H136.305V11.4574C136.167 12.2086 135.799 12.8985 135.253 13.432C134.664 13.907 133.919 14.1444 133.163 14.0974C132.64 14.1148 132.12 14.0063 131.647 13.7811C131.247 13.5777 130.906 13.273 130.66 12.8974C130.399 12.4864 130.214 12.0319 130.114 11.5555C129.993 11.0001 129.935 10.433 129.94 9.86458C129.94 8.32272 130.265 7.20996 130.916 6.5263C131.642 5.81831 132.631 5.44644 133.644 5.50081C134.164 5.4884 134.683 5.53599 135.193 5.64264Z" fill="black"/>
<path fill-rule="evenodd" clip-rule="evenodd" d="M142.37 1.31184C142.374 0.969432 142.515 0.642956 142.763 0.406361C143.028 0.13974 143.391 -0.00621841 143.766 0.00271194C144.156 -0.00992418 144.534 0.135701 144.814 0.406361C145.073 0.636867 145.223 0.965298 145.228 1.31184C145.225 1.65264 145.074 1.97518 144.814 2.19551C144.527 2.45358 144.152 2.59045 143.766 2.57734C143.387 2.59361 143.017 2.45591 142.741 2.19551C142.5 1.96525 142.366 1.64513 142.37 1.31184Z" fill="black"/>
<path fill-rule="evenodd" clip-rule="evenodd" d="M142.785 4.03906H144.793V15.494H142.785V4.03906Z" fill="black"/>
<path fill-rule="evenodd" clip-rule="evenodd" d="M151.097 4.03906V10.3447C151.091 10.8922 151.128 11.4393 151.206 11.9811C151.26 12.392 151.394 12.7885 151.599 13.1484C151.791 13.4562 152.068 13.7024 152.395 13.8575C152.788 14.0395 153.218 14.1255 153.65 14.1085C154.431 14.1413 155.195 13.8761 155.788 13.3666C156.347 12.8628 156.781 12.2351 157.054 11.5338V4.03906H159.061V12.2211C159.061 12.7739 159.083 13.3375 159.127 13.9121C159.164 14.4353 159.229 14.9561 159.323 15.4721H157.97L157.425 13.5739H157.207C156.827 14.2296 156.286 14.7778 155.636 15.1667C154.872 15.5981 154.003 15.8095 153.126 15.7776C152.532 15.7881 151.94 15.7072 151.37 15.5376C150.881 15.3862 150.443 15.1031 150.104 14.7194C149.732 14.2742 149.47 13.7471 149.341 13.1812C149.157 12.3948 149.073 11.5885 149.09 10.7811V4.03906H151.097Z" fill="black"/>
<path fill-rule="evenodd" clip-rule="evenodd" d="M170.583 15.4941V9.21023C170.588 8.66348 170.559 8.11696 170.496 7.57382C170.455 7.16601 170.337 6.76979 170.147 6.40651C169.983 6.10247 169.727 5.85808 169.416 5.70831C169.034 5.54219 168.621 5.46389 168.205 5.47921C167.505 5.45556 166.82 5.68396 166.274 6.12287C165.761 6.55293 165.383 7.1208 165.183 7.75928V15.4941H163.176V4.03917H164.55L164.943 5.56649H165.161C165.624 5.04551 166.165 4.6001 166.765 4.24645C167.469 3.86133 168.264 3.67292 169.067 3.70097C169.759 3.67679 170.444 3.85089 171.041 4.20281C171.625 4.60831 172.052 5.20111 172.252 5.88286C172.666 5.23159 173.226 4.68613 173.889 4.29008C174.571 3.89424 175.347 3.69066 176.136 3.70097C176.738 3.68751 177.338 3.76849 177.914 3.94098C178.386 4.09009 178.8 4.37931 179.103 4.7701C179.444 5.24413 179.676 5.78826 179.78 6.36287C179.94 7.19666 180.013 8.04491 179.998 8.89386V15.4941H177.991V8.90477C177.996 8.40118 177.963 7.8979 177.892 7.39927C177.844 7.02614 177.721 6.66642 177.532 6.34105C177.36 6.05974 177.105 5.83871 176.802 5.70831C176.409 5.55603 175.989 5.48549 175.569 5.50103C174.855 5.46132 174.152 5.69541 173.605 6.15559C173.071 6.69062 172.714 7.37566 172.58 8.11929V15.4941H170.572H170.583Z" fill="black"/>
</svg>
